# AST/ASF file generated using VICON BodyLanguage
# -----------------------------------------------
:version 1.10
:name VICON
:units
  mass 1.0
  length 0.45
  angle deg
:documentation
   .ast/.asf automatically generated from VICON data using
   VICON BodyBuilder and BodyLanguage model FoxedUp or BRILLIANT.MOD
:root
   order TX TY TZ RX RY RZ
   axis XYZ
   position 0 0 0  
   orientation 0 0 0 
:bonedata
  begin
     id 1 
     name lhipjoint
     direction 0.630082 -0.636569 0.44472 
     length 2.82754 
     axis 0 0 0  XYZ
  end
  begin
     id 2 
     name lfemur
     direction 0.34202 -0.939693 0  
     length 7.26371  
     axis 0 0 20  XYZ
    dof rx ry rz
    limits (-160.0 20.0)
           (-70.0 70.0)
           (-60.0 70.0)
  end
  begin
     id 3 
     name ltibia
     direction 0.34202 -0.939693 0   
     length 7.88616   
     axis 0 0 20   XYZ
    dof rx
    limits (-10.0 170.0)
  end
  begin
     id 4 
     name lfoot
     direction 0.0603448 -0.165796 0.984312   
     length 1.77861   
     axis -90 7.62852e-016 20   XYZ
    dof rx rz
    limits (-45.0 90.0)
           (-70.0 20.0)
  end
  begin
     id 5 
     name ltoes
     direction 1.53577e-011 -4.21876e-011 1   
     length 0.902235   
     axis -90 7.62852e-016 20   XYZ
    dof rx
    limits (-90.0 20.0)
  end
  begin
     id 6 
     name rhipjoint
     direction -0.656778 -0.61817 0.431866   
     length 2.9117  
     axis 0 0 0  XYZ 
  end
  begin
     id 7 
     name rfemur
     direction -0.34202 -0.939693 0   
     length 6.81603   
     axis 0 0 -20   XYZ
    dof rx ry rz
    limits (-160.0 20.0)
           (-70.0 70.0)
           (-70.0 60.0)
  end
  begin
     id 8 
     name rtibia
     direction -0.34202 -0.939693 0   
     length 8.05997   
     axis 0 0 -20   XYZ
    dof rx
    limits (-10.0 170.0)
 end
 begin
     id 9 
     name rfoot
     direction -0.0862404 -0.236944 0.967688   
     length 1.84899  
     axis -90 -7.62852e-016 -20   XYZ
    dof rx rz
    limits (-45.0 90.0)
           (-20.0 70.0)
  end
  begin
     id 10 
     name rtoes
     direction -1.53561e-011 -4.21798e-011 1   
     length 0.931579   
     axis -90 -7.62852e-016 -20   XYZ
    dof rx
    limits (-90.0 20.0)
  end
  begin
     id 11 
     name lowerback
     direction -0.0110203 0.991769 -0.127564   
     length 2.05686   
     axis 0 0 0   XYZ
    dof rx ry rz
    limits (-20.0 45.0)
           (-30.0 30.0)
           (-30.0 30.0)
  end
  begin
     id 12 
     name upperback
     direction 0.0109719 0.99993 -0.00432479   
     length 2.06234   
     axis 0 0 0   XYZ
    dof rx ry rz
    limits (-20.0 45.0)
           (-30.0 30.0)
           (-30.0 30.0)
  end
  begin
     id 13 
     name thorax
     direction 0.0173308 0.998351 0.0547306   
     length 2.09856   
     axis 0 0 0   XYZ
    dof rx ry rz
    limits (-20.0 45.0)
           (-30.0 30.0)
           (-30.0 30.0)
  end
  begin
     id 14 
     name lowerneck
     direction -0.0311736 0.989033 0.144366   
     length 1.98151   
     axis 0 0 0   XYZ
    dof rx ry rz
    limits (-20.0 45.0)
           (-30.0 30.0)
           (-30.0 30.0)
  end
  begin
     id 15 
     name upperneck
     direction 0.0421057 0.975772 -0.214698   
     length 2.01457   
     axis 0 0 0   XYZ
    dof rx ry rz
    limits (-20.0 45.0)
           (-30.0 30.0)
           (-30.0 30.0)
  end
  begin
     id 16
     name head
     direction 0.0136911 0.995958 -0.0887718  
     length 2.03562  
     axis 0 0 0   XYZ
    dof rx ry rz
    limits (-20.0 45.0)
           (-30.0 30.0)
           (-30.0 30.0)
  end
  begin
     id 17 
     name lclavicle
     direction 0.915335 0.396201 0.0720134  
     length 4.16217  
     axis 0 0 0   XYZ
    dof ry rz
    limits (-20.0 10.0)
           (0.0 20.0)
  end
  begin
     id 18 
     name lhumerus
     direction 1 -4.48965e-011 6.383e-018   
     length 4.93042   
     axis -180 -30 -90   XYZ
    dof rx ry rz
    limits (-60.0 90.0)
           (-90.0 90.0)
           (-90.0 90.0)
  end
  begin
     id 19
     name lradius
     direction 1 -4.48972e-011 8.8689e-027   
     length 3.68177   
     axis -180 -30 -90   XYZ
    dof rx
    limits (-10.0 170.0)
  end
  begin
     id 20
     name lwrist
     direction 1 -4.48953e-011 1.17971e-026   
     length 1.84089   
     axis -7.69454e-015 90 90   XYZ
    dof ry
    limits (-180.0 0.0)
 end
  begin
     id 21 
     name lhand
     direction 1 -4.49027e-011 2.35802e-026   
     length 0.721479   
     axis -1.50533e-014 90 90   XYZ
    dof rx rz
    limits (-90.0 90.0)
           (-45.0 45.0)
  end
  begin
     id 22 
     name lfingers
     direction 1 -4.48915e-011 4.72027e-026   
     length 0.581675   
     axis -3.01059e-014 90 90   XYZ
    dof rx
    limits (0.0 90.0)
  end
  begin
     id 23
     name lthumb
     direction 0.707107 -6.34948e-011 0.707107   
     length 0.835172   
     axis -90 45 -5.12164e-014   XYZ
    dof rx rz
    limits (-45.0 45.0)
           (-45.0 45.0)
  end
  begin
     id 24 
     name rclavicle
     direction -0.882781 0.469197 0.0234974   
     length 3.95647  
     axis 0 0 0   XYZ 
    dof ry rz
    limits (-10.0 20.0)
           (-20.0 0.0)
  end
  begin
     id 25 
     name rhumerus
     direction -1 -4.48965e-011 -1.54906e-018  
     length 5.07905   
     axis -180 30 90   XYZ
    dof rx ry rz
    limits (-90.0 60.0)
           (-90.0 90.0)
           (-90.0 90.0)
  end
  begin
     id 26 
     name rradius
     direction -1 -4.48972e-011 5.47489e-027   
     length 3.54394   
     axis -180 30 90   XYZ
    dof rx
    limits (-10.0 170.0)
  end
  begin
     id 27 
     name rwrist
     direction -1 -4.48955e-011 1.17969e-026   
     length 1.77197   
     axis -7.69454e-015 -90 -90   XYZ
    dof ry
    limits (-180.0 0.0)
  end
  begin
     id 28
     name rhand
     direction -1 -4.48982e-011 2.35888e-026   
     length 0.681156   
     axis -1.50533e-014 -90 -90   XYZ
    dof rx rz
    limits (-90.0 90.0)
           (-45.0 45.0)
  end
  begin
     id 29
     name rfingers
     direction -1 -4.48955e-011 4.71877e-026   
     length 0.549165   
     axis -3.01059e-014 -90 -90   XYZ
    dof rx
    limits (0.0 90.0)
  end
  begin
     id 30
     name rthumb
     direction -0.707107 -6.3491e-011 0.707107   
     length 0.788495   
     axis -90 -45 5.12164e-014   XYZ
    dof rx rz
    limits (-45.0 45.0)
           (-45.0 45.0)
  end
:hierarchy
  begin
    root lhipjoint rhipjoint lowerback
    lhipjoint lfemur
    lfemur ltibia
    ltibia lfoot
    lfoot ltoes
    rhipjoint rfemur
    rfemur rtibia
    rtibia rfoot
    rfoot rtoes
    lowerback upperback
    upperback thorax
    thorax lowerneck lclavicle rclavicle
    lowerneck upperneck
    upperneck head
    lclavicle lhumerus
    lhumerus lradius
    lradius lwrist
    lwrist lhand lthumb
    lhand lfingers
    rclavicle rhumerus
    rhumerus rradius
    rradius rwrist
    rwrist rhand rthumb
    rhand rfingers
  end

#!OML:ASF H:\Bending\Project 1\Capture day 1\Session 1\Subject.ASF
:FULLY-SPECIFIED
:DEGREES
223
root -9.85598 17.9744 -16.7531 57.3338 90.7153 51.0894
lowerback 2.70904 0.407128 0.567316
upperback -2.21949 0.656573 1.8226
thorax -3.81978 0.348152 1.52
lowerneck -24.9978 -4.09466 -6.60952
upperneck 27.7336 -4.31415 4.14561
head 13.8633 -1.89159 1.97097
rclavicle -1.14301e-015 -6.36111e-015
rhumerus 0.334388 12.9066 -88.2458
rradius 75.8636
rwrist -11.8065
rhand -28.8675 -42.6626
rfingers 7.12502
rthumb -2.2237 -72.6308
lclavicle -1.14301e-015 -6.36111e-015
lhumerus 5.18844 -27.7442 84.7728
lradius 70.7864
lwrist 59.0998
lhand -31.2664 18.215
lfingers 7.12502
lthumb -4.54038 48.1463
rfemur 4.16795 -3.97466 12.0809
rtibia 1.59028e-015
rfoot -8.93425 -19.4084
rtoes -1.43088
lfemur -11.4127 -10.8983 -11.5079
ltibia 23.5392
lfoot -20.784 6.17564
ltoes -15.9779
224
root -9.87019 17.9783 -16.7475 51.8639 90.7306 45.5183
lowerback 2.78056 0.384145 0.457068
upperback -2.15106 0.621737 1.86814
thorax -3.79034 0.333912 1.63063
lowerneck -25.0502 -4.11383 -6.72931
upperneck 27.5744 -4.27127 4.08978
head 13.8054 -1.8962 1.9734
rclavicle -4.94477e-015 -1.15295e-014
rhumerus 1.38966 12.2282 -88.2449
rradius 74.7658
rwrist -11.1741
rhand -27.6586 -42.1875
rfingers 7.12502
rthumb -1.05615 -72.1646
lclavicle -4.94477e-015 -1.15295e-014
lhumerus 6.42823 -27.4488 84.5142
lradius 69.5279
lwrist 58.7134
lhand -30.7648 17.9879
lfingers 7.12502
lthumb -4.05605 47.929
rfemur 4.03162 -4.05389 12.0596
rtibia -7.95139e-015
rfoot -8.95921 -19.3484
rtoes -1.29142
lfemur -11.5596 -10.9857 -11.4934
ltibia 23.4739
lfoot -20.702 6.2983
ltoes -15.9309
225
root -9.88546 17.9825 -16.7417 46.8682 90.7349 40.3956
lowerback 2.83958 0.350553 0.307756
upperback -2.09172 0.571397 1.92414
thorax -3.76315 0.31314 1.77508
lowerneck -25.1244 -4.08618 -6.74848
upperneck 27.4627 -4.17093 3.94373
head 13.7631 -1.87738 1.93451
rclavicle 1.06847e-015 -8.74653e-015
rhumerus 2.54652 11.6446 -88.3078
rradius 73.4968
rwrist -10.4765
rhand -26.7497 -41.6467
rfingers 7.12502
rthumb -0.178347 -71.6264
lclavicle 1.06847e-015 -8.74653e-015
lhumerus 7.71915 -27.1048 84.2113
lradius 68.0754
lwrist 58.3214
lhand -30.2831 17.7741
lfingers 7.12502
lthumb -3.59081 47.7236
rfemur 3.85456 -4.12313 12.0303
rtibia 0
rfoot -8.98273 -19.2876
rtoes -1.07351
lfemur -11.737 -11.0203 -11.4822
ltibia 23.4034
lfoot -20.6029 6.37967
ltoes -15.8851
226
root -9.90161 17.9866 -16.7366 41.8456 90.7492 35.2283
lowerback 2.89569 0.303411 0.17266
upperback -2.04284 0.503192 1.96756
thorax -3.74396 0.282862 1.89976
lowerneck -25.2451 -4.01003 -6.63425
upperneck 27.4348 -4.02306 3.70763
head 13.7569 -1.8356 1.8474
rclavicle 4.17448e-015 1.74931e-014
rhumerus 3.79284 11.1921 -88.4289
rradius 72.0429
rwrist -9.86248
rhand -26.2943 -41.284
rfingers 7.12502
rthumb 0.261504 -71.2636
lclavicle 4.17448e-015 1.74931e-014
lhumerus 9.08443 -26.7606 83.8274
lradius 66.3886
lwrist 57.9483
lhand -29.7284 17.6079
lfingers 7.12502
lthumb -3.05513 47.5657
rfemur 3.65125 -4.19941 12.0018
rtibia -3.02153e-014
rfoot -9.00862 -19.2308
rtoes -0.763686
lfemur -11.9507 -11.0316 -11.4655
ltibia 23.3486
lfoot -20.5127 6.39494
ltoes -15.8263
227
root -9.91842 17.9906 -16.7326 37.3839 90.7932 30.6114
lowerback 2.96586 0.244032 0.0901825
upperback -2.00708 0.420624 1.99051
thorax -3.74481 0.243827 1.97469
lowerneck -25.4096 -3.90376 -6.42037
upperneck 27.4873 -3.85666 3.42986
head 13.7896 -1.78031 1.73138
rclavicle 1.2424e-015 -3.97569e-015
rhumerus 5.0955 10.8821 -88.5653
rradius 70.449
rwrist -9.44707
rhand -26.3255 -41.2141
rfingers 7.12502
rthumb 0.231373 -71.1937
lclavicle 1.2424e-015 -3.97569e-015
lhumerus 10.5101 -26.4469 83.3753
lradius 64.5098
lwrist 57.5964
lhand -29.0359 17.5026
lfingers 7.12502
lthumb -2.38637 47.469
rfemur 3.43545 -4.29366 11.9906
rtibia -1.59028e-014
rfoot -9.0334 -19.1842
rtoes -0.390503
lfemur -12.2016 -11.0448 -11.4287
ltibia 23.325
lfoot -20.4484 6.33586
ltoes -15.7372
228
root -9.93564 17.9946 -16.7298 34.4365 90.8704 27.5024
lowerback 3.05906 0.177181 0.0530733
upperback -1.98276 0.330674 2.01086
thorax -3.76969 0.200119 2.02206
lowerneck -25.591 -3.79761 -6.19433
upperneck 27.5792 -3.70406 3.18014
head 13.8447 -1.72535 1.62229
rclavicle 1.09332e-015 3.18055e-015
rhumerus 6.4266 10.7179 -88.6387
rradius 68.7876
rwrist -9.28087
rhand -26.7518 -41.296
rfingers 7.12502
rthumb -0.180329 -71.2757
lclavicle 1.09332e-015 3.18055e-015
lhumerus 11.9596 -26.1479 82.9219
lradius 62.5322
lwrist 57.2356
lhand -28.1907 17.4421
lfingers 7.12502
lthumb -1.57007 47.416
rfemur 3.21518 -4.40404 12.0097
rtibia 1.11319e-014
rfoot -9.04831 -19.1524
rtoes -0.00657512
lfemur -12.4833 -11.0712 -11.3609
ltibia 23.3345
lfoot -20.4102 6.22235
ltoes -15.6127
229
root -9.95301 17.9991 -16.7277 33.2866 90.965 26.1864
lowerback 3.17626 0.107774 0.0539701
upperback -1.96562 0.239823 2.03458
thorax -3.81521 0.155246 2.05186
lowerneck -25.7553 -3.71817 -6.03829
upperneck 27.6564 -3.59595 3.03152
head 13.8976 -1.6827 1.55684
rclavicle 2.08724e-015 0
rhumerus 7.77436 10.6776 -88.6082
rradius 67.1146
rwrist -9.33501
rhand -27.3954 -41.1442
rfingers 7.12502
rthumb -0.802022 -71.1224
lclavicle 2.08724e-015 0
lhumerus 13.3956 -25.8267 82.519
lradius 60.5498
lwrist 56.8152
lhand -27.2244 17.3883
lfingers 7.12502
lthumb -0.636838 47.3671
rfemur 2.99204 -4.51598 12.0605
rtibia -3.18055e-015
rfoot -9.04243 -19.1361
rtoes 0.331852
lfemur -12.7812 -11.1097 -11.2641
ltibia 23.365
lfoot -20.3826 6.10281
ltoes -15.478
230
root -9.97038 18.0042 -16.726 33.4855 91.0511 26.2162
lowerback 3.31367 0.0399136 0.071004
upperback -1.95127 0.15256 2.06485
thorax -3.87512 0.111991 2.07948
lowerneck -25.8775 -3.67718 -5.99766
upperneck 27.6794 -3.54344 3.01908
head 13.9282 -1.6572 1.55445
rclavicle -1.59028e-015 1.66979e-014
rhumerus 9.14545 10.7286 -88.4691
rradius 65.4398
rwrist -9.52164
rhand -28.0514 -40.3543
rfingers 7.12502
rthumb -1.43555 -70.3292
lclavicle -1.59028e-015 1.66979e-014
lhumerus 14.7925 -25.4345 82.2049
lradius 58.6123
lwrist 56.2809
lhand -26.198 17.2937
lfingers 7.12502
lthumb 0.354504 47.2731
rfemur 2.76353 -4.60913 12.1306
rtibia 1.59028e-014
rfoot -9.00756 -19.1319
rtoes 0.586802
lfemur -13.0763 -11.1551 -11.1533
ltibia 23.396
lfoot -20.3447 6.03958
ltoes -15.3892
231
root -9.98768 18.0101 -16.7246 34.3965 91.1045 26.9568
lowerback 3.46714 -0.0229873 0.0788039
upperback -1.93711 0.0719802 2.10025
thorax -3.94457 0.0724628 2.11759
lowerneck -25.9525 -3.66851 -6.06431
upperneck 27.6389 -3.53588 3.12724
head 13.9297 -1.64564 1.60954
rclavicle -1.04362e-015 -7.95139e-015
rhumerus 10.556 10.8297 -88.2509
rradius 63.7253
rwrist -9.73075
rhand -28.5522 -38.8727
rfingers 7.12502
rthumb -1.91924 -68.8438
lclavicle -1.04362e-015 -7.95139e-015
lhumerus 16.1463 -24.9402 81.9941
lradius 56.7084
lwrist 55.6028
lhand -25.1787 17.1171
lfingers 7.12502
lthumb 1.33896 47.0927
rfemur 2.52637 -4.66709 12.1998
rtibia -4.77083e-015
rfoot -8.94133 -19.133
rtoes 0.744987
lfemur -13.3515 -11.2067 -11.0501
ltibia 23.4081
lfoot -20.2825 6.08547
ltoes -15.4165
232
root -10.005 18.0165 -16.7234 35.528 91.1131 27.9186
lowerback 3.63246 -0.0782272 0.0622423
upperback -1.92209 0.000398516 2.13433
thorax -4.02012 0.0380576 2.16783
lowerneck -25.9951 -3.67416 -6.18465
upperneck 27.5544 -3.54978 3.29972
head 13.9099 -1.64009 1.69505
rclavicle -1.98785e-016 -2.38542e-015
rhumerus 12.0177 10.935 -88.0024
rradius 61.9131
rwrist -9.87006
rhand -28.8289 -37.2353
rfingers 7.12502
rthumb -2.18642 -67.2038
lclavicle -1.98785e-016 -2.38542e-015
lhumerus 17.4731 -24.3483 81.8755
lradius 54.7847
lwrist 54.7973
lhand -24.2259 16.8372
lfingers 7.12502
lthumb 2.25923 46.805
rfemur 2.27823 -4.68479 12.2502
rtibia 0
rfoot -8.8486 -19.1326
rtoes 0.816847
lfemur -13.5979 -11.2712 -10.9716
ltibia 23.3903
lfoot -20.195 6.26095
ltoes -15.6141
233
root -10.0223 18.0231 -16.7224 36.638 91.0806 28.8596
lowerback 3.80454 -0.123432 0.0229056
upperback -1.9061 -0.0595706 2.15857
thorax -4.09879 0.00986802 2.22026
lowerneck -26.0292 -3.67596 -6.28959
upperneck 27.4583 -3.56316 3.46676
head 13.8828 -1.63347 1.77574
rclavicle 1.54058e-015 3.18055e-015
rhumerus 13.5271 10.9988 -87.7703
rradius 59.965
rwrist -9.89458
rhand -28.9372 -35.8755
rfingers 7.12502
rthumb -2.29106 -65.8429
lclavicle 1.54058e-015 3.18055e-015
lhumerus 18.7986 -23.6978 81.8237
lradius 52.7822
lwrist 53.9261
lhand -23.385 16.4573
lfingers 7.12502
lthumb 3.07132 46.4149
rfemur 2.01774 -4.66937 12.2753
rtibia 2.22639e-014
rfoot -8.74015 -19.1264
rtoes 0.828744
lfemur -13.8178 -11.3577 -10.9214
ltibia 23.3425
lfoot -20.0935 6.54528
ltoes -15.9937
234
root -10.0396 18.0298 -16.7213 37.7239 91.0224 29.7737
lowerback 3.97615 -0.15675 -0.0256562
upperback -1.88947 -0.105188 2.16689
thorax -4.17698 -0.0112222 2.26065
lowerneck -26.0726 -3.66588 -6.33162
upperneck 27.3748 -3.5669 3.57867
head 13.8597 -1.6238 1.82559
rclavicle -1.59028e-015 -7.95139e-016
rhumerus 15.064 10.9829 -87.583
rradius 57.8872
rwrist -9.81386
rhand -28.971 -36.942
rfingers 7.12502
rthumb -2.32374 -66.9091
lclavicle -1.59028e-015 -7.95139e-016
lhumerus 20.1424 -23.0404 81.8167
lradius 50.6708
lwrist 53.0689
lhand -22.6877 16.0039
lfingers 7.12502
lthumb 3.7447 45.9508
rfemur 1.74333 -4.6348 12.2816
rtibia 1.59028e-015
rfoot -8.6304 -19.1139
rtoes 0.821416
lfemur -14.0226 -11.4695 -10.8893
ltibia 23.2722
lfoot -19.9959 6.88496
ltoes -16.5128
235
root -10.0567 18.0365 -16.7197 39.0232 90.9556 30.8925
lowerback 4.1386 -0.177629 -0.0687084
upperback -1.8726 -0.134962 2.15914
thorax -4.2503 -0.0248845 2.28021
lowerneck -26.1288 -3.64956 -6.30697
upperneck 27.3085 -3.56749 3.62566
head 13.8432 -1.61488 1.83884
rclavicle 5.96354e-016 -2.22639e-014
rhumerus 16.6018 10.8622 -87.4505
rradius 55.7268
rwrist -9.67665
rhand -28.9661 -41.7259
rfingers 7.12502
rthumb -2.31894 -71.6931
lclavicle 5.96354e-016 -2.22639e-014
lhumerus 21.5075 -22.4132 81.8491
lradius 48.4632
lwrist 52.2839
lhand -22.1495 15.512
lfingers 7.12502
lthumb 4.26442 45.449
rfemur 1.45324 -4.59362 12.2835
rtibia -7.95139e-015
rfoot -8.53287 -19.0976
rtoes 0.840778
lfemur -14.2268 -11.5982 -10.857
ltibia 23.1896
lfoot -19.9181 7.2164
ltoes -17.0845
236
root -10.0733 18.0432 -16.7172 40.8982 90.8901 32.5733
lowerback 4.2842 -0.187729 -0.10129
upperback -1.85596 -0.150529 2.14099
thorax -4.31489 -0.0319819 2.28198
lowerneck -26.1898 -3.64204 -6.25156
upperneck 27.2492 -3.58056 3.63352
head 13.8298 -1.6137 1.82876
rclavicle -3.57812e-015 -1.74931e-014
rhumerus 18.1219 10.6279 -87.3775
rradius 53.5405
rwrist -9.54143
rhand -28.6803 -42.1495
rfingers 7.12502
rthumb -2.04298 -72.1195
lclavicle -3.57812e-015 -1.74931e-014
lhumerus 22.8802 -21.8177 81.9351
lradius 46.2017
lwrist 51.5723
lhand -21.7665 15.0065
lfingers 7.12502
lthumb 4.63428 44.9358
rfemur 1.14678 -4.55076 12.2936
rtibia 3.18055e-015
rfoot -8.45618 -19.081
rtoes 0.927461
lfemur -14.4403 -11.7254 -10.8102
ltibia 23.1024
lfoot -19.868 7.49155
ltoes -17.5976
